<?xml version="1.0" encoding="utf-8"?>
<!-- Generator: Adobe Illustrator 21.0.2, SVG Export Plug-In . SVG Version: 6.00 Build 0)  -->
<svg version="1.1" xmlns="http://www.w3.org/2000/svg" xmlns:xlink="http://www.w3.org/1999/xlink" x="0px" y="0px"
	 viewBox="0 0 1538.8270264 1059.7133789" style="enable-background:new 0 0 1538.8270264 1059.7133789;" xml:space="preserve">
<style type="text/css">
	.st0{fill:#353535;}
	.st1{display:none;}
	.st2{display:inline;fill:#353535;}
	.st3{opacity:0.04;}
	.st4{display:inline;}
	.st5{fill:#F9A948;}
	.st6{filter:url(#Adobe_OpacityMaskFilter);}
	.st7{opacity:0.2;mask:url(#SVGID_1_);}
	.st8{fill:#FFFFFF;}
	.st9{fill:#660606;}
	.st10{filter:url(#Adobe_OpacityMaskFilter_1_);}
	.st11{opacity:0.2;mask:url(#SVGID_2_);}
	.st12{fill:#BA4911;}
	.st13{filter:url(#Adobe_OpacityMaskFilter_2_);}
	.st14{opacity:0.2;mask:url(#SVGID_3_);}
	.st15{display:none;fill:#5E1313;}
	.st16{fill:#DB9D12;}
	.st17{display:inline;opacity:0.15;}
	.st18{fill:#F9F9F9;}
	.st19{fill:#3A0D0D;}
	.st20{filter:url(#Adobe_OpacityMaskFilter_3_);}
	.st21{opacity:0.2;mask:url(#SVGID_4_);}
	.st22{display:none;fill:#E5A415;}
	.st23{display:none;opacity:0.38;fill:url(#SVGID_5_);}
	.st24{display:none;fill:url(#SVGID_6_);}
	.st25{display:inline;opacity:0.55;fill:url(#SVGID_7_);}
	.st26{display:inline;opacity:0.4;}
	.st27{display:inline;opacity:0.46;}
	.st28{fill:url(#SVGID_8_);}
	.st29{opacity:0.17;}
	.st30{fill:url(#SVGID_9_);}
	.st31{fill:url(#SVGID_10_);}
	.st32{fill:url(#SVGID_11_);}
	.st33{fill:url(#SVGID_12_);}
	.st34{opacity:0.35;}
	.st35{fill:url(#SVGID_13_);}
	.st36{fill:url(#SVGID_14_);}
	.st37{display:none;opacity:0.79;}
	.st38{display:inline;opacity:0.35;}
	.st39{opacity:0.64;}
	.st40{display:inline;opacity:0.17;}
	.st41{fill:url(#SVGID_15_);}
	.st42{display:inline;fill:url(#SVGID_16_);}
	.st43{fill:url(#SVGID_17_);}
	.st44{fill:url(#SVGID_18_);}
	.st45{display:inline;opacity:0.33;}
	.st46{fill:url(#SVGID_19_);fill-opacity:0.7;}
	.st47{display:inline;opacity:0.49;fill:url(#SVGID_20_);}
	.st48{fill:#F7F5F5;}
	.st49{display:none;fill:#353535;}
	.st50{display:none;fill:#FFBBAE;}
	.st51{display:none;fill:#7C2516;}
	.st52{display:none;fill:#D35335;}
</style>
<g id="Layer_17">
	<g>
		<rect x="-8.5864706" y="-0.0986272" class="st0" width="1547" height="1060"/>
	</g>
</g>
<g id="Layer_1" class="st1">
	<rect x="553.4135132" y="369.9013672" class="st2" width="565" height="321"/>
</g>
<g id="Layer_13" class="st3">
	
		<image style="overflow:visible;" width="536" height="180" xlink:href="BB9F304447A77BB4.png"  transform="matrix(1 0 0 1 579.4135132 551.9013672)">
	</image>
</g>
<g id="guides">
</g>
<g id="Logo">
	<g id="Layer_4">
		<g>
			<g class="st1">
				
					<image style="display:inline;overflow:visible;opacity:0.03;" width="391" height="574" xlink:href="BB9F304447A77BB5.png"  transform="matrix(1 0 0 1 285.4135437 124.9013748)">
				</image>
				<g class="st4">
					<g>
						<path class="st5" d="M416.898407,138.0709381c-12.5273438-11.6601105,163.3610535,168.0654449,136.2628479,235.6182098
							c-31.7756958,79.2128601,37.4091187,58.5737,85.7145996,93.1149902
							c15.937439,8.7718201,14.4839478,7.3183594,23.5730591,18.908905
							c47.5294189,60.610321-69.0162354,209.6261292-69.0162354,209.6261292
							c-37.8339844-214.5002441-195.2015076-8.3491821-281.6143494-196.9655762
							c-89.0950012-194.4707336,121.8928833-201.7694702,92.4704895-369.9107361"/>
					</g>
					<defs>
						
							<filter id="Adobe_OpacityMaskFilter" filterUnits="userSpaceOnUse" x="289.7154541" y="128.4628601" width="384.1269531" height="566.8762817">
							
								<feColorMatrix  type="matrix" values="-1 0 0 0 1  0 -1 0 0 1  0 0 -1 0 1  0 0 0 1 0" color-interpolation-filters="sRGB" result="source"/>
						</filter>
					</defs>
					<mask maskUnits="userSpaceOnUse" x="289.7154541" y="128.4628601" width="384.1269531" height="566.8762817" id="SVGID_1_">
						<g class="st6">
							
								<image style="overflow:visible;" width="389" height="572" xlink:href="BB9F304447A77BB4.jpg"  transform="matrix(1 0 0 1 287.4135437 125.9013748)">
							</image>
						</g>
					</mask>
					<g class="st7">
						<path class="st8" d="M416.898407,138.0709381c-12.5273438-11.6601105,163.3610535,168.0654449,136.2628479,235.6182098
							c-31.7756958,79.2128601,37.4091187,58.5737,85.7145996,93.1149902
							c15.937439,8.7718201,14.4839478,7.3183594,23.5730591,18.908905
							c47.5294189,60.610321-69.0162354,209.6261292-69.0162354,209.6261292
							c-37.8339844-214.5002441-195.2015076-8.3491821-281.6143494-196.9655762
							c-89.0950012-194.4707336,121.8928833-201.7694702,92.4704895-369.9107361"/>
					</g>
				</g>
			</g>
			<g>
				
					<image style="overflow:visible;opacity:0.03;" width="384" height="471" xlink:href="BB9F304447A77BBC.png"  transform="matrix(1 0 0 1 269.4135437 189.9013672)">
				</image>
				<g>
					<g>
						<path class="st9" d="M388.1593933,192.9805603c29.4223938,168.1412659-181.5654907,175.4399719-92.4704895,369.9107361
							c86.4128418,188.616394,398.1600342,47.949707,350.6305542-12.6605835
							c-9.0890503-11.5905151-7.6356201-10.137085-23.5730591-18.9088745
							c-48.305481-34.5412903-117.4902344-13.9021606-85.7145996-93.1150208
							C568.807373,358.9939575,400.7690125,202.588623,400.7690125,202.588623"/>
					</g>
					<defs>
						
							<filter id="Adobe_OpacityMaskFilter_1_" filterUnits="userSpaceOnUse" x="273.5860596" y="192.9805603" width="377.6337891" height="464.7767639">
							
								<feColorMatrix  type="matrix" values="-1 0 0 0 1  0 -1 0 0 1  0 0 -1 0 1  0 0 0 1 0" color-interpolation-filters="sRGB" result="source"/>
						</filter>
					</defs>
					<mask maskUnits="userSpaceOnUse" x="273.5860596" y="192.9805603" width="377.6337891" height="464.7767639" id="SVGID_2_">
						<g class="st10">
							
								<image style="overflow:visible;" width="382" height="469" xlink:href="BB9F304447A77BBC.jpg"  transform="matrix(1 0 0 1 271.4135437 190.9013672)">
							</image>
						</g>
					</mask>
					<g class="st11">
						<path class="st8" d="M388.1593933,192.9805603c29.4223938,168.1412659-181.5654907,175.4399719-92.4704895,369.9107361
							c86.4128418,188.616394,398.1600342,47.949707,350.6305542-12.6605835
							c-9.0890503-11.5905151-7.6356201-10.137085-23.5730591-18.9088745
							c-48.305481-34.5412903-117.4902344-13.9021606-85.7145996-93.1150208
							C568.807373,358.9939575,400.7690125,202.588623,400.7690125,202.588623"/>
					</g>
				</g>
			</g>
			<g>
				
					<image style="overflow:visible;opacity:0.03;" width="391" height="574" xlink:href="BB9F304447A77BBD.png"  transform="matrix(1 0 0 1 317.4135437 253.9013672)">
				</image>
				<g>
					<g>
						<path class="st12" d="M591.5278931,257.49823c-29.4223633,168.1412964,181.5654907,175.4400024,92.47052,369.9107666
							c-86.4128418,188.616394-243.780365-17.534668-281.6143188,196.9655151c0,0-116.5456848-149.0158081-69.0162659-209.6260986
							c9.0890808-11.5905151,7.6356201-10.137085,23.5730896-18.9089355
							c48.305481-34.5412598,117.4902344-13.9020996,85.7145996-93.1149597
							C410.8799438,423.5116577,578.918335,267.1063232,578.918335,267.1063232"/>
					</g>
					<defs>
						
							<filter id="Adobe_OpacityMaskFilter_2_" filterUnits="userSpaceOnUse" x="321.9743042" y="257.49823" width="384.1269531" height="566.8762817">
							
								<feColorMatrix  type="matrix" values="-1 0 0 0 1  0 -1 0 0 1  0 0 -1 0 1  0 0 0 1 0" color-interpolation-filters="sRGB" result="source"/>
						</filter>
					</defs>
					<mask maskUnits="userSpaceOnUse" x="321.9743042" y="257.49823" width="384.1269531" height="566.8762817" id="SVGID_3_">
						<g class="st13">
							
								<image style="overflow:visible;" width="389" height="572" xlink:href="BB9F304447A77BB3.jpg"  transform="matrix(1 0 0 1 319.4135437 254.9013672)">
							</image>
						</g>
					</mask>
					<g class="st14">
						<path class="st8" d="M591.5278931,257.49823c-29.4223633,168.1412964,181.5654907,175.4400024,92.47052,369.9107666
							c-86.4128418,188.616394-243.780365-17.534668-281.6143188,196.9655151c0,0-116.5456848-149.0158081-69.0162659-209.6260986
							c9.0890808-11.5905151,7.6356201-10.137085,23.5730896-18.9089355
							c48.305481-34.5412598,117.4902344-13.9020996,85.7145996-93.1149597
							C410.8799438,423.5116577,578.918335,267.1063232,578.918335,267.1063232"/>
					</g>
				</g>
			</g>
			<path class="st15" d="M326.9206543,760.6890259c0,0-144.1832275,8.1394043-166.2758331-118.602356
				s30.2319794,37.9837646,37.9837646-120.1526489c12.790451-96.5097656,80.6753387-109.7852173,80.6753387-148.4958496
				c9.6776733,80.6471252,73.1976318,148.8834229,74.3604126,144.2323608"/>
			<g class="st1">
				<g class="st4">
					
						<image style="overflow:visible;opacity:0.06;" width="511" height="734" xlink:href="BB9F304447A77BB6.png"  transform="matrix(1 0 0 1 265.4135437 -62.098629)">
					</image>
					<path class="st16" d="M492.0337219,587.8686523c0,0-239.5302124-28.487793-218.0190735-176.7407532
						c0,0,98.2539673-111.819519,104.4553833-193.9884796c6.2014465-82.1689453,6.2014465,165.8882599,176.7407837,193.794693
						C331.9593201,167.5279846,446.6857605,153.5747681,497.8475647-55.7234955
						c0,0,196.8954163,411.6199341,241.8557434,227.9025421c0,0,79.0682373,186.0429077-13.953186,207.7478943
						c-93.0214844,21.7050171-29.4567871,124.028595-60.4639282,145.7336426
						C634.2789917,547.3655396,561.4122314,657.440918,538.1568604,665.192749
						C514.9014893,672.944519,492.0337219,587.8686523,492.0337219,587.8686523z"/>
				</g>
				<g class="st4">
					
						<image style="overflow:visible;opacity:0.02;" width="531" height="751" xlink:href="BB9F304447A77BB7.png"  transform="matrix(1 0 0 1 256.4135437 -68.0986252)">
					</image>
					<g>
						
							<image style="overflow:visible;opacity:0.06;" width="511" height="734" xlink:href="1E01F9DE5B34E153.png"  transform="matrix(1 0 0 1 266.4135437 -60.098629)">
						</image>
						<path class="st16" d="M492.0337219,587.8686523c0,0-239.5302124-28.487793-218.0190735-176.7407532
							c0,0,98.2539673-111.819519,104.4553833-193.9884796c6.2014465-82.1689453,6.2014465,165.8882599,176.7407837,193.794693
							C331.9593201,167.5279846,446.6857605,153.5747681,497.8475647-55.7234955
							c0,0,196.8954163,411.6199341,241.8557434,227.9025421c0,0,79.0682373,186.0429077-13.953186,207.7478943
							c-93.0214844,21.7050171-29.4567871,124.028595-60.4639282,145.7336426
							C634.2789917,547.3655396,561.4122314,657.440918,538.1568604,665.192749
							C514.9014893,672.944519,492.0337219,587.8686523,492.0337219,587.8686523z"/>
					</g>
				</g>
				<g class="st17">
					<path class="st18" d="M498.2157593-52.2121239c6.8215027,13.9894714,36.868042,74.6783142,73.4817505,134.6752625
						c24.4060059,39.9927368,46.9175415,71.8672714,66.9094849,94.7381821
						c25.171814,28.7969971,46.513916,43.3982697,63.4335327,43.3982697c17.274292,0,30.0240479-15.0014343,37.9259033-44.6044159
						c3.5688477,8.9116058,13.3946533,34.5885315,20.7645874,64.6190643
						c5.3486938,21.7947235,8.3757935,41.5810699,8.9969482,58.8094635
						c0.7728271,21.4299011-2.194458,38.910614-8.8191528,51.9564514
						c-7.3051147,14.3855286-19.2260132,23.5968933-35.4313965,27.3781738
						c-59.5991821,13.9064636-55.9898071,60.5034485-53.0895996,97.9447327
						c1.6764526,21.6430054,3.1242676,40.3346558-7.789856,47.9744263
						c-14.7785034,10.3450317-39.0505371,40.6670532-62.5234375,69.9906006
						c-25.7398071,32.1555176-52.355896,65.4057617-64.2971802,69.3861694
						c-0.8711548,0.2904663-1.7648926,0.4377441-2.65625,0.4377441c-5.9528198,0-15.7711182-6.6184692-28.7398376-38.1488647
						c-7.8820801-19.163269-13.1365356-38.5919189-13.1886292-38.7860107
						c-0.1273804-0.4736328-0.5301819-0.8220825-1.0171814-0.8800659
						c-0.3475647-0.0412598-35.2316284-4.2856445-76.5780945-17.4613647
						c-24.2681885-7.7333374-45.9684448-16.9825439-64.4981689-27.4904785
						c-23.1116333-13.1061401-41.3187256-28.213501-54.1156616-44.9022522
						c-19.0073853-24.7880859-26.3515625-53.4433289-21.831543-85.173645
						c2.5942078-2.9866638,25.9857483-30.165802,49.7650146-66.0393677
						c14.7462769-22.2462769,26.7598267-43.440979,35.7069092-62.9955444
						c11.2106323-24.5018005,17.6175537-46.500351,19.0428162-65.3847198
						c0.2331238-3.0891724,0.8779907-11.6334076,1.6870422-14.7024689
						c1.0499878,2.3141632,2.7092285,8.3112793,4.4489441,14.5991058
						c6.4551086,23.3306427,18.470459,66.7578278,44.0431824,107.2450104
						c31.4413757,49.7783508,73.5549927,79.3007202,125.1710815,87.7470703
						c0.0649414,0.0106201,0.1298218,0.0158081,0.1941528,0.0158081c0.4354248,0,0.8435669-0.2375183,1.0554199-0.6296082
						c0.2431641-0.4500122,0.1743774-1.0046387-0.1713867-1.3815613
						c-41.2062378-44.9263611-71.4249878-82.6222534-92.3828125-115.2420044
						c-19.8341675-30.8708191-31.9499817-58.1665344-37.0396423-83.4468079
						c-4.5144348-22.4238129-3.7973633-44.1995544,2.2567444-68.5295563
						c5.554718-22.3228989,14.9642639-44.798439,25.8596191-70.8229904
						C469.1893921,37.685215,485.4721985-1.2091314,498.2157593-52.2121239 M381.7461853,201.5286865h0.0049744H381.7461853
						 M497.8475342-55.7235069c-51.1617432,209.2982941-165.8881836,223.2514648,57.3632812,466.6576538
						c-146.5052185-23.9736023-167.1511841-210.3993225-173.9925842-210.3993225
						c-1.122345,0-1.8742065,5.0245209-2.7481384,16.604599c-6.2014771,82.1688995-104.4554749,193.9884491-104.4554749,193.9884491
						c-21.5110931,148.2529907,218.019104,176.7408447,218.019104,176.7408447s20.9169617,77.8233032,43.0873108,77.8233032
						c1.008728,0,2.0238037-0.1619873,3.0358887-0.4993286c23.2553101-7.751709,96.1220703-117.8270874,127.1292725-139.5321045
						c31.0071411-21.7049866-32.5575562-124.0286255,60.4638672-145.7336121
						c93.0214844-21.7050171,13.9533081-207.7479248,13.9533081-207.7479248
						c-8.2050781,33.5275269-21.4577026,47.2205963-37.6627808,47.2205963
						C629.4481201,219.3996429,497.8475342-55.7235069,497.8475342-55.7235069L497.8475342-55.7235069z"/>
				</g>
			</g>
			<g class="st1">
				
					<image style="display:inline;overflow:visible;opacity:0.03;" width="391" height="574" xlink:href="1E01F9DE5B34E151.png"  transform="matrix(1 0 0 1 253.4135284 366.9013672)">
				</image>
				<g class="st4">
					<g>
						<path class="st19" d="M384.6395874,380.0122681c0,0,168.0383911,156.4053345,136.2628174,235.6181641
							c-31.7756653,79.2128906,37.4091187,58.5737305,85.7145996,93.1149902
							c15.937439,8.7718506,14.4839478,7.3184204,23.5730591,18.9089355
							c47.5294189,60.6102905-69.0162354,209.6260986-69.0162354,209.6260986
							c-37.8339844-214.5001831-195.2015076-8.3491211-281.6143494-196.9655151
							c-89.094986-194.4707642,121.8928833-201.7694702,92.4704895-369.9107666"/>
					</g>
					<defs>
						
							<filter id="Adobe_OpacityMaskFilter_3_" filterUnits="userSpaceOnUse" x="257.4566345" y="370.4041748" width="384.1269531" height="566.8762817">
							
								<feColorMatrix  type="matrix" values="-1 0 0 0 1  0 -1 0 0 1  0 0 -1 0 1  0 0 0 1 0" color-interpolation-filters="sRGB" result="source"/>
						</filter>
					</defs>
					<mask maskUnits="userSpaceOnUse" x="257.4566345" y="370.4041748" width="384.1269531" height="566.8762817" id="SVGID_4_">
						<g class="st20">
							
								<image style="overflow:visible;" width="389" height="572" xlink:href="1E01F9DE5B34E157.jpg"  transform="matrix(1 0 0 1 255.4135284 367.9013672)">
							</image>
						</g>
					</mask>
					<g class="st21">
						<path class="st8" d="M384.6395874,380.0122681c0,0,168.0383911,156.4053345,136.2628174,235.6181641
							c-31.7756653,79.2128906,37.4091187,58.5737305,85.7145996,93.1149902
							c15.937439,8.7718506,14.4839478,7.3184204,23.5730591,18.9089355
							c47.5294189,60.6102905-69.0162354,209.6260986-69.0162354,209.6260986
							c-37.8339844-214.5001831-195.2015076-8.3491211-281.6143494-196.9655151
							c-89.094986-194.4707642,121.8928833-201.7694702,92.4704895-369.9107666"/>
					</g>
				</g>
			</g>
		</g>
		<path class="st22" d="M624.7280273,504.42276"/>
		<g id="overlay">
			<g id="Layer_7">
				
					<linearGradient id="SVGID_5_" gradientUnits="userSpaceOnUse" x1="713.2774658" y1="361.4395752" x2="713.2774658" y2="502.1368103">
					<stop  offset="0.0053763" style="stop-color:#FFFFFF"/>
					<stop  offset="0.0916054" style="stop-color:#F8F8F8;stop-opacity:0.9133049"/>
					<stop  offset="0.2212451" style="stop-color:#E3E3E3;stop-opacity:0.7829643"/>
					<stop  offset="0.3782776" style="stop-color:#C1C1C1;stop-opacity:0.625083"/>
					<stop  offset="0.5567656" style="stop-color:#929292;stop-opacity:0.4456303"/>
					<stop  offset="0.753278" style="stop-color:#565656;stop-opacity:0.2480557"/>
					<stop  offset="0.9619262" style="stop-color:#0E0E0E;stop-opacity:0.0382797"/>
					<stop  offset="1" style="stop-color:#000000;stop-opacity:0"/>
				</linearGradient>
				<path class="st23" d="M714.5370483,502.1368103l-48.1199951-67.8846436c0,0-1.8022461-12.6157227,0-20.7859192
					c1.8022461-8.170166,6.8429565-21.4411621,7.5093384-22.1075439c0.6175537-0.6175537-1.1676636,2.0439758,4.3123169-9.6413269
					c5.4799194-11.6852722,4.4535522-11.4992981,5.2696533-13.5476074c1.5319214-3.8447876,2.2678223-6.6082153,2.6282959-6.728363
					c0.2741699-0.0914307,2.9708252,3.2819214,8.425354,12.172699c1.7155151,2.7962036,3.7037964,6.1381531,5.9753418,10.0897217
					c22.8306885,36.971405,8.8670654,14.9840088,30.6273193,40.5759277
					c21.7602539,25.5918884,10.2192993,51.9046936,26.5596313,53.3464966
					c16.3403931,1.441803-34.8101196,14.4179688-37.2130737,18.2627869
					C718.1082153,499.7338257,714.5370483,502.1368103,714.5370483,502.1368103z"/>
				
					<linearGradient id="SVGID_6_" gradientUnits="userSpaceOnUse" x1="712.3522949" y1="402.4551697" x2="712.3522949" y2="402.4551697">
					<stop  offset="0.0053763" style="stop-color:#FFFFFF"/>
					<stop  offset="1" style="stop-color:#000000;stop-opacity:0"/>
				</linearGradient>
				<path class="st24" d="M712.3522949,402.4551697"/>
			</g>
			<g id="Layer_8" class="st1">
				
					<linearGradient id="SVGID_7_" gradientUnits="userSpaceOnUse" x1="621.1425171" y1="482.9961243" x2="667.4984131" y2="482.9961243">
					<stop  offset="0.0053763" style="stop-color:#FFFFFF"/>
					<stop  offset="1" style="stop-color:#000000;stop-opacity:0"/>
				</linearGradient>
				<path class="st25" d="M632.1743774,519.7988281c0,0-17.6620483-9.0112305-8.2903442-24.8710022
					s15.8597412-20.1851807,18.7433472-30.9986572s3.9649658-12.2552795,7.2089844-17.3015747
					c3.2440796-5.0462952,10.8134766,35.6845093,17.6620483,29.5568542"/>
			</g>
			<g id="Layer_6">
			</g>
			<g id="Layer_9" class="st1">
				<g class="st26">
					
						<image style="overflow:visible;" width="318" height="361" xlink:href="1E01F9DE5B34E152.png"  transform="matrix(1 0 0 1 229.4135284 367.9013672)">
					</image>
				</g>
			</g>
			<g id="Layer_9_copy" class="st1">
				<g class="st27">
					
						<linearGradient id="SVGID_8_" gradientUnits="userSpaceOnUse" x1="622.4310913" y1="506.388855" x2="669.3149414" y2="587.5941162">
						<stop  offset="0.0053763" style="stop-color:#FFFFFF"/>
						<stop  offset="1" style="stop-color:#000000;stop-opacity:0"/>
					</linearGradient>
					<path class="st28" d="M613.4309692,575.6685181c0,0-5.2865601-14.2978516,15.138916-39.6494751
						c20.4254761-25.351593,17.9022827-26.5531006,19.4642334-28.5956421s2.1627197-11.053772,1.4418335-15.739624
						c-0.7209473-4.6858521,11.5343628,6.127655,13.3366089,8.2903442s9.6820068,8.8258667,16.2202148,18.0224609
						c10.9336548,15.3791504,10.0925903,39.6494141,10.0925903,39.6494141s1.0813599,14.7784424-2.5231323,19.8247681
						c-3.6044922,5.0462646-72.810791,0.7208862-72.810791,0.7208862"/>
				</g>
			</g>
			<g id="Layer_9_copy_2">
				<g class="st29">
					
						<linearGradient id="SVGID_9_" gradientUnits="userSpaceOnUse" x1="707.4136353" y1="334.6549988" x2="859.678833" y2="598.3860474" gradientTransform="matrix(-1 0 0 1 1382.0933838 0)">
						<stop  offset="0.0053763" style="stop-color:#FFFFFF"/>
						<stop  offset="1" style="stop-color:#000000;stop-opacity:0"/>
					</linearGradient>
					<path class="st30" d="M697.3579102,559.788208c0,0,30.4224854-12.5319214-29.1846313-99.2511597
						c-19.2799683-26.1867065-12.6219482-19.3552856-53.6431885-70.9694519
						c-41.0213013-51.6141357-34.7103271-109.6800537-34.7103271-109.6800537s-16.6149292,6.9210815-38.2845459,35.7193909
						c-21.6696777,28.7982788,2.4605713-3.1534119-43.7580261,57.8312378s-39.2716064,128.2116394-39.2716064,128.2116394
						s-3.4122009,47.6734924,7.961731,63.95224s229.7532043,2.3255615,229.7532043,2.3255615"/>
				</g>
				
					<linearGradient id="SVGID_10_" gradientUnits="userSpaceOnUse" x1="602.7543945" y1="352.0740967" x2="602.7543945" y2="352.0740967">
					<stop  offset="0.0053763" style="stop-color:#FFFFFF"/>
					<stop  offset="1" style="stop-color:#000000;stop-opacity:0"/>
				</linearGradient>
				<path class="st31" d="M602.7543945,352.0740967"/>
			</g>
			<g id="Layer_9_copy_6">
				<g class="st29">
					
						<linearGradient id="SVGID_11_" gradientUnits="userSpaceOnUse" x1="364.4551392" y1="270.1372986" x2="516.7203369" y2="533.8683472" gradientTransform="matrix(1 0 0 1 -59.8638992 0)">
						<stop  offset="0.0053763" style="stop-color:#FFFFFF"/>
						<stop  offset="1" style="stop-color:#000000;stop-opacity:0"/>
					</linearGradient>
					<path class="st32" d="M281.9130859,495.2705383c0,0-30.4224854-12.5319214,29.1846313-99.2511597
						c19.2799683-26.1867371,12.6219177-19.3553162,53.643219-70.9694519s34.7102966-109.6800842,34.7102966-109.6800842
						s16.6149292,6.9210968,38.2845459,35.7193909c21.6696472,28.7983093-2.4605713-3.1533966,43.7580261,57.8312683
						s39.271637,128.2116394,39.271637,128.2116394s3.4121704,47.6734924-7.961792,63.95224
						c-11.3739014,16.2787781-229.7531738,2.325531-229.7531738,2.325531"/>
				</g>
				
					<linearGradient id="SVGID_12_" gradientUnits="userSpaceOnUse" x1="942.4869995" y1="287.556427" x2="942.4869995" y2="287.556427" gradientTransform="matrix(-1 0 0 1 1322.2294922 0)">
					<stop  offset="0.0053763" style="stop-color:#FFFFFF"/>
					<stop  offset="1" style="stop-color:#000000;stop-opacity:0"/>
				</linearGradient>
				<path class="st33" d="M379.7424622,287.556427"/>
			</g>
			<g id="Layer_9_copy_7" class="st34">
				<g class="st29">
					
						<linearGradient id="SVGID_13_" gradientUnits="userSpaceOnUse" x1="364.4551392" y1="270.1372986" x2="516.7203369" y2="533.8683472" gradientTransform="matrix(1 0 0 1 -59.8638992 0)">
						<stop  offset="0.0053763" style="stop-color:#FFFFFF"/>
						<stop  offset="1" style="stop-color:#000000;stop-opacity:0"/>
					</linearGradient>
					<path class="st35" d="M281.9130859,495.2705383c0,0-30.4224854-12.5319214,29.1846313-99.2511597
						c19.2799683-26.1867371,12.6219177-19.3553162,53.643219-70.9694519s34.7102966-109.6800842,34.7102966-109.6800842
						s16.6149292,6.9210968,38.2845459,35.7193909c21.6696472,28.7983093-2.4605713-3.1533966,43.7580261,57.8312683
						s39.271637,128.2116394,39.271637,128.2116394s3.4121704,47.6734924-7.961792,63.95224
						c-11.3739014,16.2787781-229.7531738,2.325531-229.7531738,2.325531"/>
				</g>
				
					<linearGradient id="SVGID_14_" gradientUnits="userSpaceOnUse" x1="942.4869995" y1="287.556427" x2="942.4869995" y2="287.556427" gradientTransform="matrix(-1 0 0 1 1322.2294922 0)">
					<stop  offset="0.0053763" style="stop-color:#FFFFFF"/>
					<stop  offset="1" style="stop-color:#000000;stop-opacity:0"/>
				</linearGradient>
				<path class="st36" d="M379.7424622,287.556427"/>
			</g>
		</g>
	</g>
	<g id="Layer_14" class="st37">
		
			<image style="display:inline;overflow:visible;" width="91" height="108" xlink:href="1E01F9DE5B34E14D.png"  transform="matrix(1 0 0 1 650.4135132 470.9013672)">
		</image>
	</g>
	<g id="Layer_15" class="st1">
		<g class="st38">
			
				<image style="overflow:visible;" width="190" height="159" xlink:href="1E01F9DE5B34E14E.png"  transform="matrix(1 0 0 1 370.4135437 343.9013672)">
			</image>
		</g>
		<g id="Layer_16" class="st39">
			
				<image style="display:inline;overflow:visible;" width="86" height="98" xlink:href="1E01F9DE5B34E14F.png"  transform="matrix(1 0 0 1 736.4135132 434.9013672)">
			</image>
		</g>
	</g>
	<g id="Layer_9_copy_5" class="st1">
		<g class="st40">
			
				<linearGradient id="SVGID_15_" gradientUnits="userSpaceOnUse" x1="642.2200317" y1="466.9100037" x2="689.6140137" y2="548.9987793" gradientTransform="matrix(-1 0 0 1 1382.0933838 0)">
				<stop  offset="0.0053763" style="stop-color:#FFFFFF"/>
				<stop  offset="1" style="stop-color:#000000;stop-opacity:0"/>
			</linearGradient>
			<path class="st41" d="M747.6624146,536.6685181c0,0,5.2865601-14.2978516-15.138916-39.6494751
				c-6.1099854-8.1176758,1.8900146,2.8823242-11.1099854-13.1176758s-11-34-11-34s-10.3304443,8.9100647-12.1326904,11.0727539
				s0.7797852-0.9775391-13.8673096,17.9272461c-14.6470337,18.9047852-12.4454956,39.7446289-12.4454956,39.7446289
				s-1.0813599,14.7784424,2.5231323,19.8247681c3.6044922,5.0462646,72.810791,0.7208862,72.810791,0.7208862"/>
		</g>
		
			<linearGradient id="SVGID_16_" gradientUnits="userSpaceOnUse" x1="717.6817017" y1="472.278656" x2="717.6817017" y2="472.278656">
			<stop  offset="0.0053763" style="stop-color:#FFFFFF"/>
			<stop  offset="1" style="stop-color:#000000;stop-opacity:0"/>
		</linearGradient>
		<path class="st42" d="M717.6817017,472.278656"/>
	</g>
	<g id="Layer_9_copy_3" class="st1">
		<g class="st40">
			
				<linearGradient id="SVGID_17_" gradientUnits="userSpaceOnUse" x1="672.2200317" y1="431.9100037" x2="719.6140137" y2="513.9987793" gradientTransform="matrix(1 0 0 1 -42 0)">
				<stop  offset="0.0053763" style="stop-color:#FFFFFF"/>
				<stop  offset="1" style="stop-color:#000000;stop-opacity:0"/>
			</linearGradient>
			<path class="st43" d="M622.4309692,501.6684875c0,0-5.2865601-14.297821,15.138916-39.6494446
				c6.1099854-8.1176758-1.8900146,2.8823242,11.1099854-13.1176758s11-34,11-34s10.3304443,8.9100647,12.1326904,11.0727539
				s-0.7797852-0.9775391,13.8673096,17.9272461c14.6470337,18.9047852,12.4454956,39.7446594,12.4454956,39.7446594
				s1.0813599,14.7784119-2.5231323,19.824707s-72.810791,0.7209167-72.810791,0.7209167"/>
		</g>
	</g>
	<g id="Layer_9_copy_4" class="st1">
		<g class="st40">
			
				<linearGradient id="SVGID_18_" gradientUnits="userSpaceOnUse" x1="672.2200317" y1="431.9100037" x2="719.6140137" y2="513.9987793" gradientTransform="matrix(1 0 0 1 -42 0)">
				<stop  offset="0.0053763" style="stop-color:#FFFFFF"/>
				<stop  offset="1" style="stop-color:#000000;stop-opacity:0"/>
			</linearGradient>
			<path class="st44" d="M622.4309692,501.6684875c0,0-5.2865601-14.297821,15.138916-39.6494446
				c6.1099854-8.1176758-1.8900146,2.8823242,11.1099854-13.1176758s11-34,11-34s10.3304443,8.9100647,12.1326904,11.0727539
				s-0.7797852-0.9775391,13.8673096,17.9272461c14.6470337,18.9047852,12.4454956,39.7446594,12.4454956,39.7446594
				s1.0813599,14.7784119-2.5231323,19.824707s-72.810791,0.7209167-72.810791,0.7209167"/>
		</g>
	</g>
	<g id="Layer_11" class="st1">
		<g class="st45">
			
				<image style="overflow:visible;" width="102" height="124" xlink:href="1E01F9DE5B34E171.png"  transform="matrix(1 0 0 1 692.4135132 429.9013672)">
			</image>
		</g>
	</g>
	<g id="Layer_12" class="st1">
		
			<linearGradient id="SVGID_19_" gradientUnits="userSpaceOnUse" x1="729.0716553" y1="453.1444397" x2="700.635498" y2="502.3973083">
			<stop  offset="0.0053763" style="stop-color:#FFFFFF"/>
			<stop  offset="0.1431261" style="stop-color:#FBFBFB;stop-opacity:0.8615056"/>
			<stop  offset="0.2697407" style="stop-color:#F0F0F0;stop-opacity:0.7342066"/>
			<stop  offset="0.392038" style="stop-color:#DEDEDE;stop-opacity:0.6112483"/>
			<stop  offset="0.5116362" style="stop-color:#C3C3C3;stop-opacity:0.4910036"/>
			<stop  offset="0.6293234" style="stop-color:#A1A1A1;stop-opacity:0.3726802"/>
			<stop  offset="0.7455962" style="stop-color:#787878;stop-opacity:0.2557789"/>
			<stop  offset="0.8607463" style="stop-color:#474747;stop-opacity:0.1400065"/>
			<stop  offset="0.9722544" style="stop-color:#0F0F0F;stop-opacity:0.0278956"/>
			<stop  offset="1" style="stop-color:#000000;stop-opacity:0"/>
		</linearGradient>
		<path class="st46" d="M699.0889282,444.7140503c0,0,6.6082764,15.1388855,20.7859497,16.8209839
			c14.1776733,1.6820679,11.4743042-2.1627197,13.8773193-4.8059998c2.4029541-2.6433105,4.4154663,9.3716736,5.6170044,14.1776733
			c1.2014771,4.8059998,6.0074463,23.0687561-4.1602173,29.0762634
			c-10.1676636,6.0074768-17.4592896,8.4104614-18.901062,11.2940674s-17.2189941-65.1211853-17.2189941-65.1211853V444.7140503z"/>
		
			<linearGradient id="SVGID_20_" gradientUnits="userSpaceOnUse" x1="740.1936035" y1="494.1309509" x2="676.2003784" y2="494.1309509">
			<stop  offset="0.0053763" style="stop-color:#FFFFFF"/>
			<stop  offset="0.134692" style="stop-color:#E4E4E4;stop-opacity:0.8699853"/>
			<stop  offset="0.4126602" style="stop-color:#A0A0A0;stop-opacity:0.5905147"/>
			<stop  offset="0.8140929" style="stop-color:#343434;stop-opacity:0.186912"/>
			<stop  offset="1" style="stop-color:#000000;stop-opacity:0"/>
		</linearGradient>
		<path class="st47" d="M709.9024658,531.4622192c0,0-7.1188965-15.0487671,8.47052-22.3478699
			c15.5894775-7.2991028,24.1500854-9.9123535,21.2664795-38.0274353
			c-2.3428955-21.6870117-7.3891602-13.1564026-8.6507568-11.7145996
			c-11.8948364,8.2903442-20.5455933-2.7033691-22.8884888-5.0462952
			c-2.3429565-2.3428955-27.0337524,79.2988586-31.8998413,79.6593323"/>
	</g>
	<g id="Layer_3">
		<g>
			<path class="st48" d="M747.8925171,408.2197266h44.0498047v33.2822266h0.9790039
				c8.4804688-12.3964844,20.1435547-22.0249023,34.9951172-28.8769531
				c14.8427734-6.8520508,30.1005859-10.2783203,45.7626953-10.2783203c17.9414062,0,34.1777344,3.1049805,48.6992188,9.2993164
				c14.515625,6.2021484,26.9199219,14.8515625,37.1972656,25.9404297
				c10.2792969,11.0966797,18.1875,24.0668945,23.7382812,38.9106445
				c5.5449219,14.8515625,8.3203125,30.7587891,8.3203125,47.7207031c0,17.2988281-2.7753906,33.3662109-8.3203125,48.2099609
				c-5.5507812,14.8515625-13.4589844,27.7382812-23.7382812,38.6660156
				c-10.2773438,10.9365234-22.6816406,19.5009766-37.1972656,25.6962891
				c-14.5214844,6.1943359-30.7578125,9.2988281-48.6992188,9.2988281c-16.640625,0-32.3027344-3.5097656-46.9863281-10.5224609
				s-25.9404297-16.5576172-33.7714844-28.6328125h-0.9790039v171.3046875h-44.0498047V408.2197266z M868.2943726,443.4599609
				c-11.7460938,0-22.3535156,2.0419922-31.8125,6.1176758c-9.4677734,4.0839844-17.4589844,9.628418-23.9824219,16.6411133
				c-6.53125,7.0205078-11.5859375,15.5019531-15.1733398,25.4511719
				c-3.5942383,9.9570312-5.3837891,20.8012695-5.3837891,32.5478516s1.7895508,22.5986328,5.3837891,32.5478516
				c3.5874023,9.9570312,8.6420898,18.4384766,15.1733398,25.4511719
				c6.5234375,7.0205078,14.5146484,12.5654297,23.9824219,16.640625c9.4589844,4.0839844,20.0664062,6.1181641,31.8125,6.1181641
				c11.7480469,0,22.3476562-2.0341797,31.8144531-6.1181641c9.4609375-4.0751953,17.4511719-9.6201172,23.9824219-16.640625
				c6.5234375-7.0126953,11.578125-15.4941406,15.1738281-25.4511719
				c3.5859375-9.9492188,5.3828125-20.8012695,5.3828125-32.5478516s-1.796875-22.5908203-5.3828125-32.5478516
				c-3.5957031-9.9492188-8.6503906-18.4306641-15.1738281-25.4511719
				c-6.53125-7.0126953-14.5214844-12.5571289-23.9824219-16.6411133
				C890.6420288,445.5019531,880.0424194,443.4599609,868.2943726,443.4599609z"/>
			<path class="st48" d="M1027.3608398,446.3964844h-49.9238892v-38.1767578h49.9238892v-51.8808594
				c0-30.9951172,5.9492188-54.0834961,17.8642578-69.2558594c11.9072266-15.1728516,32.3798828-22.7592773,61.4248047-22.7592773
				c4.8945312,0,10.0341797,0.168457,15.4179688,0.4897461c5.3837891,0.3286133,11.1728516,1.3076172,17.375,2.9365234
				l-4.8945312,39.1552734c-4.2441406-1.6289062-8.3203125-2.7685547-12.2363281-3.4262695
				c-3.9150391-0.6499023-8.1601562-0.9785156-12.7255859-0.9785156c-8.1591797,0-14.6826172,1.2236328-19.5771484,3.6704102
				c-4.8945312,2.4472656-8.7333984,5.9575195-11.5019531,10.5234375
				c-2.7763672,4.5732422-4.5732422,10.0332031-5.3837891,16.3959961
				c-0.8183594,6.362793-1.2236328,13.6279297-1.2236328,21.7802734v53.3491211h52.3701172v38.1767578h-52.859375v193.8193359
				h-44.0498047V446.3964844z"/>
		</g>
		<rect x="1551.2536621" y="546.6676025" class="st49" width="56.4741631" height="52.7092171"/>
	</g>
	<g id="Layer_5">
		<rect x="757.4135132" y="489.9013672" class="st50" width="9" height="9"/>
		<rect x="770.4135132" y="501.9013672" class="st51" width="17" height="18"/>
		<rect x="856.4135132" y="478.9013672" class="st52" width="29" height="29"/>
		<rect x="914.4135132" y="444.9013672" class="st52" width="29" height="28"/>
		<rect x="963.4135132" y="444.9013672" class="st52" width="52" height="51"/>
	</g>
	<g>
	</g>
	<g>
	</g>
	<g>
	</g>
	<g>
	</g>
	<g>
	</g>
	<g>
	</g>
	<g>
	</g>
	<g>
	</g>
	<g>
	</g>
	<g>
	</g>
	<g>
	</g>
	<g>
	</g>
	<g>
	</g>
	<g>
	</g>
	<g>
	</g>
</g>
</svg>
